<mxfile host="Electron" modified="2024-03-04T16:15:26.459Z" agent="Mozilla/5.0 (X11; Linux x86_64) AppleWebKit/537.36 (KHTML, like Gecko) draw.io/23.1.5 Chrome/120.0.6099.109 Electron/28.1.0 Safari/537.36" etag="xMY1v46gmXVIAFTVgVPM" version="23.1.5" type="device">
  <diagram name="PÃ¡gina-1" id="-rzyazZA07NCYQTuwIPl">
    <mxGraphModel dx="2924" dy="757" grid="1" gridSize="10" guides="1" tooltips="1" connect="1" arrows="1" fold="1" page="1" pageScale="1" pageWidth="1600" pageHeight="1200" math="0" shadow="0">
      <root>
        <mxCell id="0" />
        <mxCell id="1" parent="0" />
        <mxCell id="yHFWq50CjrSYQNt5o2un-2" value="Usuario" style="rounded=0;whiteSpace=wrap;html=1;" parent="1" vertex="1">
          <mxGeometry x="-620" y="420" width="120" height="60" as="geometry" />
        </mxCell>
        <mxCell id="yHFWq50CjrSYQNt5o2un-4" value="Professor" style="rounded=0;whiteSpace=wrap;html=1;" parent="1" vertex="1">
          <mxGeometry x="-620" y="700" width="120" height="60" as="geometry" />
        </mxCell>
        <mxCell id="yHFWq50CjrSYQNt5o2un-5" value="Perguntas" style="rounded=0;whiteSpace=wrap;html=1;" parent="1" vertex="1">
          <mxGeometry x="270" y="545" width="120" height="60" as="geometry" />
        </mxCell>
        <mxCell id="yHFWq50CjrSYQNt5o2un-6" value="Diciplina" style="rounded=0;whiteSpace=wrap;html=1;" parent="1" vertex="1">
          <mxGeometry x="270" y="870" width="120" height="60" as="geometry" />
        </mxCell>
        <mxCell id="yHFWq50CjrSYQNt5o2un-7" value="Assunto" style="rounded=0;whiteSpace=wrap;html=1;" parent="1" vertex="1">
          <mxGeometry x="270" y="270" width="120" height="60" as="geometry" />
        </mxCell>
        <mxCell id="yHFWq50CjrSYQNt5o2un-8" value="Alternativas" style="rounded=0;whiteSpace=wrap;html=1;" parent="1" vertex="1">
          <mxGeometry x="790" y="545" width="120" height="60" as="geometry" />
        </mxCell>
        <mxCell id="yHFWq50CjrSYQNt5o2un-9" value="Usuario" style="ellipse;whiteSpace=wrap;html=1;" parent="1" vertex="1">
          <mxGeometry x="-720" y="420" width="60" height="40" as="geometry" />
        </mxCell>
        <mxCell id="yHFWq50CjrSYQNt5o2un-10" value="Senha" style="ellipse;whiteSpace=wrap;html=1;" parent="1" vertex="1">
          <mxGeometry x="-660" y="350" width="60" height="40" as="geometry" />
        </mxCell>
        <mxCell id="yHFWq50CjrSYQNt5o2un-11" value="UsuarioProfessor" style="rhombus;whiteSpace=wrap;html=1;" parent="1" vertex="1">
          <mxGeometry x="-640" y="550" width="160" height="50" as="geometry" />
        </mxCell>
        <mxCell id="yHFWq50CjrSYQNt5o2un-12" value="UsuarioResponde" style="rhombus;whiteSpace=wrap;html=1;" parent="1" vertex="1">
          <mxGeometry x="-10" y="420" width="160" height="50" as="geometry" />
        </mxCell>
        <mxCell id="yHFWq50CjrSYQNt5o2un-14" value="PerguntasCriadas" style="rhombus;whiteSpace=wrap;html=1;" parent="1" vertex="1">
          <mxGeometry y="705" width="160" height="50" as="geometry" />
        </mxCell>
        <mxCell id="yHFWq50CjrSYQNt5o2un-16" value="N" style="endArrow=none;html=1;rounded=0;entryX=0.5;entryY=1;entryDx=0;entryDy=0;exitX=0.5;exitY=0;exitDx=0;exitDy=0;" parent="1" source="yHFWq50CjrSYQNt5o2un-4" target="yHFWq50CjrSYQNt5o2un-11" edge="1">
          <mxGeometry y="-20" width="50" height="50" relative="1" as="geometry">
            <mxPoint x="-420" y="780" as="sourcePoint" />
            <mxPoint x="-370" y="730" as="targetPoint" />
            <mxPoint y="1" as="offset" />
          </mxGeometry>
        </mxCell>
        <mxCell id="yHFWq50CjrSYQNt5o2un-17" value="1" style="endArrow=none;html=1;rounded=0;entryX=0.5;entryY=1;entryDx=0;entryDy=0;" parent="1" source="yHFWq50CjrSYQNt5o2un-11" target="yHFWq50CjrSYQNt5o2un-2" edge="1">
          <mxGeometry x="-0.1429" y="-20" width="50" height="50" relative="1" as="geometry">
            <mxPoint x="-550" y="700" as="sourcePoint" />
            <mxPoint x="-550" y="610" as="targetPoint" />
            <mxPoint as="offset" />
          </mxGeometry>
        </mxCell>
        <mxCell id="yHFWq50CjrSYQNt5o2un-18" value="N" style="endArrow=none;html=1;rounded=0;entryX=1.013;entryY=0.427;entryDx=0;entryDy=0;exitX=0;exitY=0.5;exitDx=0;exitDy=0;entryPerimeter=0;" parent="1" source="yHFWq50CjrSYQNt5o2un-12" target="yHFWq50CjrSYQNt5o2un-2" edge="1">
          <mxGeometry x="-0.6419" y="-15" width="50" height="50" relative="1" as="geometry">
            <mxPoint x="30" y="445" as="sourcePoint" />
            <mxPoint x="-100" y="610" as="targetPoint" />
            <mxPoint as="offset" />
          </mxGeometry>
        </mxCell>
        <mxCell id="yHFWq50CjrSYQNt5o2un-19" value="N" style="endArrow=none;html=1;rounded=0;entryX=1;entryY=0.5;entryDx=0;entryDy=0;exitX=0;exitY=0.5;exitDx=0;exitDy=0;" parent="1" source="yHFWq50CjrSYQNt5o2un-5" target="yHFWq50CjrSYQNt5o2un-12" edge="1">
          <mxGeometry x="-0.0241" y="-18" width="50" height="50" relative="1" as="geometry">
            <mxPoint x="-120" y="710" as="sourcePoint" />
            <mxPoint x="-120" y="620" as="targetPoint" />
            <mxPoint as="offset" />
          </mxGeometry>
        </mxCell>
        <mxCell id="yHFWq50CjrSYQNt5o2un-20" value="PerguntasAlternativas" style="rhombus;whiteSpace=wrap;html=1;" parent="1" vertex="1">
          <mxGeometry x="490" y="550" width="200" height="50" as="geometry" />
        </mxCell>
        <mxCell id="9dntIC0oJ66V0iwh-9Vj-1" value="&lt;u&gt;id&lt;/u&gt;" style="ellipse;whiteSpace=wrap;html=1;" parent="1" vertex="1">
          <mxGeometry x="-560" y="340" width="60" height="40" as="geometry" />
        </mxCell>
        <mxCell id="9dntIC0oJ66V0iwh-9Vj-2" value="&lt;u&gt;id&lt;/u&gt;" style="ellipse;whiteSpace=wrap;html=1;" parent="1" vertex="1">
          <mxGeometry x="-740" y="710" width="60" height="40" as="geometry" />
        </mxCell>
        <mxCell id="9dntIC0oJ66V0iwh-9Vj-3" value="N" style="endArrow=none;html=1;rounded=0;entryX=1;entryY=0.5;entryDx=0;entryDy=0;exitX=0;exitY=0.5;exitDx=0;exitDy=0;" parent="1" source="yHFWq50CjrSYQNt5o2un-5" target="yHFWq50CjrSYQNt5o2un-14" edge="1">
          <mxGeometry x="0.7426" y="-17" width="50" height="50" relative="1" as="geometry">
            <mxPoint x="280" y="590" as="sourcePoint" />
            <mxPoint x="180" y="455" as="targetPoint" />
            <mxPoint as="offset" />
          </mxGeometry>
        </mxCell>
        <mxCell id="9dntIC0oJ66V0iwh-9Vj-4" value="1" style="endArrow=none;html=1;rounded=0;entryX=1;entryY=0.5;entryDx=0;entryDy=0;" parent="1" target="yHFWq50CjrSYQNt5o2un-4" edge="1">
          <mxGeometry x="-0.6071" y="-20" width="50" height="50" relative="1" as="geometry">
            <mxPoint y="730" as="sourcePoint" />
            <mxPoint x="-38" y="456" as="targetPoint" />
            <mxPoint as="offset" />
          </mxGeometry>
        </mxCell>
        <mxCell id="9dntIC0oJ66V0iwh-9Vj-7" value="Nome" style="ellipse;whiteSpace=wrap;html=1;" parent="1" vertex="1">
          <mxGeometry x="-720" y="490" width="60" height="40" as="geometry" />
        </mxCell>
        <mxCell id="9dntIC0oJ66V0iwh-9Vj-8" value="1" style="endArrow=none;html=1;rounded=0;entryX=1;entryY=0.5;entryDx=0;entryDy=0;exitX=0;exitY=0.5;exitDx=0;exitDy=0;" parent="1" source="yHFWq50CjrSYQNt5o2un-20" target="yHFWq50CjrSYQNt5o2un-5" edge="1">
          <mxGeometry x="-0.6" y="-15" width="50" height="50" relative="1" as="geometry">
            <mxPoint x="320" y="710" as="sourcePoint" />
            <mxPoint x="370" y="660" as="targetPoint" />
            <mxPoint as="offset" />
          </mxGeometry>
        </mxCell>
        <mxCell id="9dntIC0oJ66V0iwh-9Vj-9" value="N" style="endArrow=none;html=1;rounded=0;entryX=1;entryY=0.5;entryDx=0;entryDy=0;" parent="1" source="yHFWq50CjrSYQNt5o2un-8" target="yHFWq50CjrSYQNt5o2un-20" edge="1">
          <mxGeometry x="0.6" y="-15" width="50" height="50" relative="1" as="geometry">
            <mxPoint x="320" y="710" as="sourcePoint" />
            <mxPoint x="370" y="660" as="targetPoint" />
            <mxPoint as="offset" />
          </mxGeometry>
        </mxCell>
        <mxCell id="9dntIC0oJ66V0iwh-9Vj-10" value="PerguntasDiciplina" style="rhombus;whiteSpace=wrap;html=1;" parent="1" vertex="1">
          <mxGeometry x="230" y="700" width="200" height="50" as="geometry" />
        </mxCell>
        <mxCell id="9dntIC0oJ66V0iwh-9Vj-11" value="N" style="endArrow=none;html=1;rounded=0;entryX=0.5;entryY=1;entryDx=0;entryDy=0;exitX=0.5;exitY=0;exitDx=0;exitDy=0;" parent="1" source="9dntIC0oJ66V0iwh-9Vj-10" target="yHFWq50CjrSYQNt5o2un-5" edge="1">
          <mxGeometry x="-0.1579" y="-20" width="50" height="50" relative="1" as="geometry">
            <mxPoint x="370" y="710" as="sourcePoint" />
            <mxPoint x="420" y="660" as="targetPoint" />
            <mxPoint as="offset" />
          </mxGeometry>
        </mxCell>
        <mxCell id="9dntIC0oJ66V0iwh-9Vj-12" value="1" style="endArrow=none;html=1;rounded=0;entryX=0.5;entryY=1;entryDx=0;entryDy=0;exitX=0.5;exitY=0;exitDx=0;exitDy=0;" parent="1" source="yHFWq50CjrSYQNt5o2un-6" target="9dntIC0oJ66V0iwh-9Vj-10" edge="1">
          <mxGeometry x="0.1667" y="-20" width="50" height="50" relative="1" as="geometry">
            <mxPoint x="340" y="710" as="sourcePoint" />
            <mxPoint x="340" y="615" as="targetPoint" />
            <mxPoint y="1" as="offset" />
          </mxGeometry>
        </mxCell>
        <mxCell id="9dntIC0oJ66V0iwh-9Vj-13" value="N" style="endArrow=none;html=1;rounded=0;entryX=0.5;entryY=1;entryDx=0;entryDy=0;exitX=0.5;exitY=0;exitDx=0;exitDy=0;" parent="1" source="yHFWq50CjrSYQNt5o2un-5" target="9dntIC0oJ66V0iwh-9Vj-14" edge="1">
          <mxGeometry x="0.125" y="-10" width="50" height="50" relative="1" as="geometry">
            <mxPoint x="370" y="570" as="sourcePoint" />
            <mxPoint x="420" y="520" as="targetPoint" />
            <mxPoint as="offset" />
          </mxGeometry>
        </mxCell>
        <mxCell id="9dntIC0oJ66V0iwh-9Vj-14" value="PerguntasAssunto" style="rhombus;whiteSpace=wrap;html=1;" parent="1" vertex="1">
          <mxGeometry x="230" y="415" width="200" height="50" as="geometry" />
        </mxCell>
        <mxCell id="9dntIC0oJ66V0iwh-9Vj-15" value="N" style="endArrow=none;html=1;rounded=0;entryX=0.5;entryY=1;entryDx=0;entryDy=0;exitX=0.5;exitY=0;exitDx=0;exitDy=0;" parent="1" source="9dntIC0oJ66V0iwh-9Vj-14" target="yHFWq50CjrSYQNt5o2un-7" edge="1">
          <mxGeometry x="-0.1765" y="-20" width="50" height="50" relative="1" as="geometry">
            <mxPoint x="340" y="555" as="sourcePoint" />
            <mxPoint x="340" y="475" as="targetPoint" />
            <mxPoint as="offset" />
          </mxGeometry>
        </mxCell>
        <mxCell id="9dntIC0oJ66V0iwh-9Vj-17" value="texto" style="ellipse;whiteSpace=wrap;html=1;" parent="1" vertex="1">
          <mxGeometry x="390" y="640" width="60" height="40" as="geometry" />
        </mxCell>
        <mxCell id="9dntIC0oJ66V0iwh-9Vj-19" value="&lt;u&gt;id&lt;/u&gt;" style="ellipse;whiteSpace=wrap;html=1;" parent="1" vertex="1">
          <mxGeometry x="440" y="600" width="60" height="40" as="geometry" />
        </mxCell>
        <mxCell id="9dntIC0oJ66V0iwh-9Vj-20" value="" style="endArrow=none;html=1;rounded=0;entryX=1;entryY=0.75;entryDx=0;entryDy=0;exitX=0;exitY=0.5;exitDx=0;exitDy=0;" parent="1" source="9dntIC0oJ66V0iwh-9Vj-19" target="yHFWq50CjrSYQNt5o2un-5" edge="1">
          <mxGeometry width="50" height="50" relative="1" as="geometry">
            <mxPoint x="160" y="650" as="sourcePoint" />
            <mxPoint x="210" y="600" as="targetPoint" />
          </mxGeometry>
        </mxCell>
        <mxCell id="9dntIC0oJ66V0iwh-9Vj-21" value="" style="endArrow=none;html=1;rounded=0;entryX=0.75;entryY=1;entryDx=0;entryDy=0;exitX=0;exitY=0;exitDx=0;exitDy=0;" parent="1" source="9dntIC0oJ66V0iwh-9Vj-17" target="yHFWq50CjrSYQNt5o2un-5" edge="1">
          <mxGeometry width="50" height="50" relative="1" as="geometry">
            <mxPoint x="160" y="650" as="sourcePoint" />
            <mxPoint x="210" y="600" as="targetPoint" />
          </mxGeometry>
        </mxCell>
        <mxCell id="9dntIC0oJ66V0iwh-9Vj-22" value="texto" style="ellipse;whiteSpace=wrap;html=1;" parent="1" vertex="1">
          <mxGeometry x="450" y="260" width="60" height="40" as="geometry" />
        </mxCell>
        <mxCell id="9dntIC0oJ66V0iwh-9Vj-23" value="texto" style="ellipse;whiteSpace=wrap;html=1;" parent="1" vertex="1">
          <mxGeometry x="790" y="640" width="60" height="40" as="geometry" />
        </mxCell>
        <mxCell id="9dntIC0oJ66V0iwh-9Vj-24" value="&lt;u&gt;id&lt;/u&gt;" style="ellipse;whiteSpace=wrap;html=1;" parent="1" vertex="1">
          <mxGeometry x="880" y="640" width="60" height="40" as="geometry" />
        </mxCell>
        <mxCell id="9dntIC0oJ66V0iwh-9Vj-25" value="Nome" style="ellipse;whiteSpace=wrap;html=1;" parent="1" vertex="1">
          <mxGeometry x="420" y="850" width="60" height="40" as="geometry" />
        </mxCell>
        <mxCell id="9dntIC0oJ66V0iwh-9Vj-26" value="&lt;u&gt;id&lt;/u&gt;" style="ellipse;whiteSpace=wrap;html=1;" parent="1" vertex="1">
          <mxGeometry x="420" y="930" width="60" height="40" as="geometry" />
        </mxCell>
        <mxCell id="9dntIC0oJ66V0iwh-9Vj-27" value="&lt;u&gt;id&lt;/u&gt;" style="ellipse;whiteSpace=wrap;html=1;" parent="1" vertex="1">
          <mxGeometry x="450" y="320" width="60" height="40" as="geometry" />
        </mxCell>
        <mxCell id="9dntIC0oJ66V0iwh-9Vj-28" value="" style="endArrow=none;html=1;rounded=0;entryX=0;entryY=0.5;entryDx=0;entryDy=0;exitX=1;exitY=0.25;exitDx=0;exitDy=0;" parent="1" source="yHFWq50CjrSYQNt5o2un-6" target="9dntIC0oJ66V0iwh-9Vj-25" edge="1">
          <mxGeometry width="50" height="50" relative="1" as="geometry">
            <mxPoint x="450" y="630" as="sourcePoint" />
            <mxPoint x="400" y="600" as="targetPoint" />
          </mxGeometry>
        </mxCell>
        <mxCell id="9dntIC0oJ66V0iwh-9Vj-29" value="" style="endArrow=none;html=1;rounded=0;entryX=0;entryY=0.5;entryDx=0;entryDy=0;exitX=1;exitY=0.75;exitDx=0;exitDy=0;" parent="1" source="yHFWq50CjrSYQNt5o2un-6" target="9dntIC0oJ66V0iwh-9Vj-26" edge="1">
          <mxGeometry width="50" height="50" relative="1" as="geometry">
            <mxPoint x="400" y="895" as="sourcePoint" />
            <mxPoint x="430" y="880" as="targetPoint" />
          </mxGeometry>
        </mxCell>
        <mxCell id="9dntIC0oJ66V0iwh-9Vj-30" value="" style="endArrow=none;html=1;rounded=0;entryX=1;entryY=0.75;entryDx=0;entryDy=0;exitX=0;exitY=0.5;exitDx=0;exitDy=0;" parent="1" source="9dntIC0oJ66V0iwh-9Vj-27" target="yHFWq50CjrSYQNt5o2un-7" edge="1">
          <mxGeometry width="50" height="50" relative="1" as="geometry">
            <mxPoint x="409" y="656" as="sourcePoint" />
            <mxPoint x="370" y="615" as="targetPoint" />
          </mxGeometry>
        </mxCell>
        <mxCell id="9dntIC0oJ66V0iwh-9Vj-31" value="" style="endArrow=none;html=1;rounded=0;entryX=0.992;entryY=0.393;entryDx=0;entryDy=0;exitX=0;exitY=0.5;exitDx=0;exitDy=0;entryPerimeter=0;" parent="1" source="9dntIC0oJ66V0iwh-9Vj-22" target="yHFWq50CjrSYQNt5o2un-7" edge="1">
          <mxGeometry width="50" height="50" relative="1" as="geometry">
            <mxPoint x="460" y="350" as="sourcePoint" />
            <mxPoint x="400" y="325" as="targetPoint" />
          </mxGeometry>
        </mxCell>
        <mxCell id="9dntIC0oJ66V0iwh-9Vj-32" value="" style="endArrow=none;html=1;rounded=0;entryX=0.5;entryY=0;entryDx=0;entryDy=0;exitX=0.5;exitY=1;exitDx=0;exitDy=0;" parent="1" source="yHFWq50CjrSYQNt5o2un-8" target="9dntIC0oJ66V0iwh-9Vj-23" edge="1">
          <mxGeometry width="50" height="50" relative="1" as="geometry">
            <mxPoint x="460" y="350" as="sourcePoint" />
            <mxPoint x="400" y="325" as="targetPoint" />
          </mxGeometry>
        </mxCell>
        <mxCell id="9dntIC0oJ66V0iwh-9Vj-33" value="" style="endArrow=none;html=1;rounded=0;entryX=0.75;entryY=1;entryDx=0;entryDy=0;exitX=0.5;exitY=0;exitDx=0;exitDy=0;" parent="1" source="9dntIC0oJ66V0iwh-9Vj-24" target="yHFWq50CjrSYQNt5o2un-8" edge="1">
          <mxGeometry width="50" height="50" relative="1" as="geometry">
            <mxPoint x="460" y="290" as="sourcePoint" />
            <mxPoint x="399" y="304" as="targetPoint" />
          </mxGeometry>
        </mxCell>
        <mxCell id="9dntIC0oJ66V0iwh-9Vj-34" value="correto" style="ellipse;whiteSpace=wrap;html=1;" parent="1" vertex="1">
          <mxGeometry x="960" y="555" width="60" height="40" as="geometry" />
        </mxCell>
        <mxCell id="9dntIC0oJ66V0iwh-9Vj-35" value="" style="endArrow=none;html=1;rounded=0;entryX=1;entryY=0.5;entryDx=0;entryDy=0;exitX=0;exitY=0.5;exitDx=0;exitDy=0;" parent="1" source="9dntIC0oJ66V0iwh-9Vj-34" target="yHFWq50CjrSYQNt5o2un-8" edge="1">
          <mxGeometry width="50" height="50" relative="1" as="geometry">
            <mxPoint x="920" y="650" as="sourcePoint" />
            <mxPoint x="890" y="615" as="targetPoint" />
          </mxGeometry>
        </mxCell>
        <mxCell id="6ALOc77N3LzCM4Vwh_3e-1" value="Prova" style="rounded=0;whiteSpace=wrap;html=1;" parent="1" vertex="1">
          <mxGeometry x="-160" y="545" width="120" height="60" as="geometry" />
        </mxCell>
        <mxCell id="6ALOc77N3LzCM4Vwh_3e-2" value="UsuarioFazProva" style="rhombus;whiteSpace=wrap;html=1;" parent="1" vertex="1">
          <mxGeometry x="-380" y="485" width="160" height="50" as="geometry" />
        </mxCell>
        <mxCell id="6ALOc77N3LzCM4Vwh_3e-3" value="ProfessorCriaProva" style="rhombus;whiteSpace=wrap;html=1;" parent="1" vertex="1">
          <mxGeometry x="-380" y="650" width="160" height="50" as="geometry" />
        </mxCell>
        <mxCell id="6ALOc77N3LzCM4Vwh_3e-4" value="PerguntaNaprova" style="rhombus;whiteSpace=wrap;html=1;" parent="1" vertex="1">
          <mxGeometry x="-10" y="550" width="160" height="50" as="geometry" />
        </mxCell>
        <mxCell id="6ALOc77N3LzCM4Vwh_3e-5" value="N" style="endArrow=none;html=1;rounded=0;entryX=1;entryY=1;entryDx=0;entryDy=0;exitX=0;exitY=0.5;exitDx=0;exitDy=0;" parent="1" source="6ALOc77N3LzCM4Vwh_3e-2" target="yHFWq50CjrSYQNt5o2un-2" edge="1">
          <mxGeometry x="-0.451" y="-12" width="50" height="50" relative="1" as="geometry">
            <mxPoint x="-150" y="750" as="sourcePoint" />
            <mxPoint x="-100" y="700" as="targetPoint" />
            <mxPoint as="offset" />
          </mxGeometry>
        </mxCell>
        <mxCell id="6ALOc77N3LzCM4Vwh_3e-6" value="1" style="endArrow=none;html=1;rounded=0;entryX=1;entryY=0;entryDx=0;entryDy=0;exitX=0;exitY=0.5;exitDx=0;exitDy=0;" parent="1" source="6ALOc77N3LzCM4Vwh_3e-3" target="yHFWq50CjrSYQNt5o2un-4" edge="1">
          <mxGeometry x="-0.242" y="-13" width="50" height="50" relative="1" as="geometry">
            <mxPoint x="-370" y="520" as="sourcePoint" />
            <mxPoint x="-490" y="490" as="targetPoint" />
            <mxPoint as="offset" />
          </mxGeometry>
        </mxCell>
        <mxCell id="6ALOc77N3LzCM4Vwh_3e-7" value="N" style="endArrow=none;html=1;rounded=0;entryX=1;entryY=0.5;entryDx=0;entryDy=0;exitX=0;exitY=1;exitDx=0;exitDy=0;" parent="1" source="6ALOc77N3LzCM4Vwh_3e-1" target="6ALOc77N3LzCM4Vwh_3e-3" edge="1">
          <mxGeometry x="-0.0328" y="14" width="50" height="50" relative="1" as="geometry">
            <mxPoint x="-370" y="665" as="sourcePoint" />
            <mxPoint x="-490" y="710" as="targetPoint" />
            <mxPoint as="offset" />
          </mxGeometry>
        </mxCell>
        <mxCell id="6ALOc77N3LzCM4Vwh_3e-8" value="N" style="endArrow=none;html=1;rounded=0;entryX=0;entryY=0;entryDx=0;entryDy=0;exitX=1;exitY=0.5;exitDx=0;exitDy=0;" parent="1" source="6ALOc77N3LzCM4Vwh_3e-2" target="6ALOc77N3LzCM4Vwh_3e-1" edge="1">
          <mxGeometry x="-0.2539" y="15" width="50" height="50" relative="1" as="geometry">
            <mxPoint x="-150" y="615" as="sourcePoint" />
            <mxPoint x="-210" y="665" as="targetPoint" />
            <mxPoint as="offset" />
          </mxGeometry>
        </mxCell>
        <mxCell id="6ALOc77N3LzCM4Vwh_3e-9" value="N" style="endArrow=none;html=1;rounded=0;entryX=1;entryY=0.5;entryDx=0;entryDy=0;exitX=0;exitY=0.5;exitDx=0;exitDy=0;" parent="1" source="6ALOc77N3LzCM4Vwh_3e-4" target="6ALOc77N3LzCM4Vwh_3e-1" edge="1">
          <mxGeometry x="-0.5556" y="-15" width="50" height="50" relative="1" as="geometry">
            <mxPoint x="20" y="575" as="sourcePoint" />
            <mxPoint x="-180" y="555" as="targetPoint" />
            <mxPoint as="offset" />
          </mxGeometry>
        </mxCell>
        <mxCell id="6ALOc77N3LzCM4Vwh_3e-10" value="N" style="endArrow=none;html=1;rounded=0;entryX=1;entryY=0.5;entryDx=0;entryDy=0;exitX=0;exitY=0.5;exitDx=0;exitDy=0;" parent="1" source="yHFWq50CjrSYQNt5o2un-5" target="6ALOc77N3LzCM4Vwh_3e-4" edge="1">
          <mxGeometry x="0.8333" y="-15" width="50" height="50" relative="1" as="geometry">
            <mxPoint y="585" as="sourcePoint" />
            <mxPoint x="-90" y="585" as="targetPoint" />
            <mxPoint as="offset" />
          </mxGeometry>
        </mxCell>
        <mxCell id="6ALOc77N3LzCM4Vwh_3e-12" value="Pontos" style="ellipse;whiteSpace=wrap;html=1;" parent="1" vertex="1">
          <mxGeometry x="45" y="500" width="50" height="20" as="geometry" />
        </mxCell>
        <mxCell id="6ALOc77N3LzCM4Vwh_3e-13" value="&lt;u&gt;id&lt;/u&gt;" style="ellipse;whiteSpace=wrap;html=1;" parent="1" vertex="1">
          <mxGeometry x="-30" y="620" width="40" height="20" as="geometry" />
        </mxCell>
        <mxCell id="6ALOc77N3LzCM4Vwh_3e-15" value="" style="endArrow=none;html=1;rounded=0;entryX=1;entryY=1;entryDx=0;entryDy=0;exitX=0;exitY=0;exitDx=0;exitDy=0;" parent="1" source="6ALOc77N3LzCM4Vwh_3e-13" target="6ALOc77N3LzCM4Vwh_3e-1" edge="1">
          <mxGeometry width="50" height="50" relative="1" as="geometry">
            <mxPoint x="60" y="610" as="sourcePoint" />
            <mxPoint x="110" y="560" as="targetPoint" />
          </mxGeometry>
        </mxCell>
        <mxCell id="6ALOc77N3LzCM4Vwh_3e-17" value="" style="endArrow=none;html=1;rounded=0;entryX=0.5;entryY=1;entryDx=0;entryDy=0;" parent="1" source="6ALOc77N3LzCM4Vwh_3e-4" target="6ALOc77N3LzCM4Vwh_3e-12" edge="1">
          <mxGeometry width="50" height="50" relative="1" as="geometry">
            <mxPoint x="-74" y="633" as="sourcePoint" />
            <mxPoint x="-90" y="615" as="targetPoint" />
          </mxGeometry>
        </mxCell>
        <mxCell id="6ALOc77N3LzCM4Vwh_3e-20" value="" style="endArrow=none;html=1;rounded=0;entryX=0;entryY=0.75;entryDx=0;entryDy=0;exitX=1;exitY=0.5;exitDx=0;exitDy=0;" parent="1" source="9dntIC0oJ66V0iwh-9Vj-7" target="yHFWq50CjrSYQNt5o2un-2" edge="1">
          <mxGeometry width="50" height="50" relative="1" as="geometry">
            <mxPoint x="-410" y="750" as="sourcePoint" />
            <mxPoint x="-360" y="700" as="targetPoint" />
          </mxGeometry>
        </mxCell>
        <mxCell id="6ALOc77N3LzCM4Vwh_3e-21" value="" style="endArrow=none;html=1;rounded=0;entryX=1;entryY=0.5;entryDx=0;entryDy=0;exitX=0;exitY=0.5;exitDx=0;exitDy=0;" parent="1" source="yHFWq50CjrSYQNt5o2un-2" target="yHFWq50CjrSYQNt5o2un-9" edge="1">
          <mxGeometry width="50" height="50" relative="1" as="geometry">
            <mxPoint x="-650" y="520" as="sourcePoint" />
            <mxPoint x="-610" y="475" as="targetPoint" />
          </mxGeometry>
        </mxCell>
        <mxCell id="6ALOc77N3LzCM4Vwh_3e-22" value="" style="endArrow=none;html=1;rounded=0;entryX=1;entryY=1;entryDx=0;entryDy=0;exitX=0.25;exitY=0;exitDx=0;exitDy=0;" parent="1" source="yHFWq50CjrSYQNt5o2un-2" target="yHFWq50CjrSYQNt5o2un-10" edge="1">
          <mxGeometry width="50" height="50" relative="1" as="geometry">
            <mxPoint x="-640" y="530" as="sourcePoint" />
            <mxPoint x="-600" y="485" as="targetPoint" />
          </mxGeometry>
        </mxCell>
        <mxCell id="6ALOc77N3LzCM4Vwh_3e-23" value="" style="endArrow=none;html=1;rounded=0;entryX=0.5;entryY=1;entryDx=0;entryDy=0;" parent="1" source="yHFWq50CjrSYQNt5o2un-2" target="9dntIC0oJ66V0iwh-9Vj-1" edge="1">
          <mxGeometry width="50" height="50" relative="1" as="geometry">
            <mxPoint x="-630" y="540" as="sourcePoint" />
            <mxPoint x="-590" y="495" as="targetPoint" />
          </mxGeometry>
        </mxCell>
        <mxCell id="6ALOc77N3LzCM4Vwh_3e-24" value="" style="endArrow=none;html=1;rounded=0;exitX=1;exitY=0.5;exitDx=0;exitDy=0;" parent="1" source="9dntIC0oJ66V0iwh-9Vj-2" target="yHFWq50CjrSYQNt5o2un-4" edge="1">
          <mxGeometry width="50" height="50" relative="1" as="geometry">
            <mxPoint x="-620" y="550" as="sourcePoint" />
            <mxPoint x="-580" y="505" as="targetPoint" />
          </mxGeometry>
        </mxCell>
        <mxCell id="6ALOc77N3LzCM4Vwh_3e-27" value="acertou" style="ellipse;whiteSpace=wrap;html=1;" parent="1" vertex="1">
          <mxGeometry x="45" y="350" width="50" height="20" as="geometry" />
        </mxCell>
        <mxCell id="6ALOc77N3LzCM4Vwh_3e-28" value="" style="endArrow=none;html=1;rounded=0;entryX=0.5;entryY=1;entryDx=0;entryDy=0;exitX=0.5;exitY=0;exitDx=0;exitDy=0;" parent="1" source="yHFWq50CjrSYQNt5o2un-12" target="6ALOc77N3LzCM4Vwh_3e-27" edge="1">
          <mxGeometry width="50" height="50" relative="1" as="geometry">
            <mxPoint x="80" y="420" as="sourcePoint" />
            <mxPoint x="80" y="530" as="targetPoint" />
          </mxGeometry>
        </mxCell>
        <mxCell id="0bSJ1-IyziWIZrMtLLBv-1" value="ProfessorDiciplina" style="rhombus;whiteSpace=wrap;html=1;" vertex="1" parent="1">
          <mxGeometry x="-640" y="875" width="160" height="50" as="geometry" />
        </mxCell>
        <mxCell id="0bSJ1-IyziWIZrMtLLBv-2" value="N" style="endArrow=none;html=1;rounded=0;exitX=0.5;exitY=0;exitDx=0;exitDy=0;entryX=0.5;entryY=1;entryDx=0;entryDy=0;" edge="1" parent="1" source="0bSJ1-IyziWIZrMtLLBv-1" target="yHFWq50CjrSYQNt5o2un-4">
          <mxGeometry x="0.1304" y="30" width="50" height="50" relative="1" as="geometry">
            <mxPoint x="-210" y="780" as="sourcePoint" />
            <mxPoint x="-160" y="730" as="targetPoint" />
            <mxPoint as="offset" />
          </mxGeometry>
        </mxCell>
        <mxCell id="0bSJ1-IyziWIZrMtLLBv-3" value="N" style="endArrow=none;html=1;rounded=0;exitX=1;exitY=0.5;exitDx=0;exitDy=0;entryX=0;entryY=0.5;entryDx=0;entryDy=0;" edge="1" parent="1" source="0bSJ1-IyziWIZrMtLLBv-1" target="yHFWq50CjrSYQNt5o2un-6">
          <mxGeometry x="-0.8133" y="20" width="50" height="50" relative="1" as="geometry">
            <mxPoint x="-550" y="885" as="sourcePoint" />
            <mxPoint x="290" y="900" as="targetPoint" />
            <mxPoint x="-1" as="offset" />
          </mxGeometry>
        </mxCell>
        <mxCell id="0bSJ1-IyziWIZrMtLLBv-4" value="" style="endArrow=none;html=1;rounded=0;entryX=0.5;entryY=1;entryDx=0;entryDy=0;" edge="1" parent="1" source="0bSJ1-IyziWIZrMtLLBv-5" target="6ALOc77N3LzCM4Vwh_3e-2">
          <mxGeometry x="-0.1765" y="-20" width="50" height="50" relative="1" as="geometry">
            <mxPoint x="-300" y="570" as="sourcePoint" />
            <mxPoint x="-300.37" y="530" as="targetPoint" />
            <mxPoint as="offset" />
          </mxGeometry>
        </mxCell>
        <mxCell id="0bSJ1-IyziWIZrMtLLBv-6" value="" style="endArrow=none;html=1;rounded=0;entryX=0.5;entryY=1;entryDx=0;entryDy=0;" edge="1" parent="1" target="0bSJ1-IyziWIZrMtLLBv-5">
          <mxGeometry x="-0.1765" y="-20" width="50" height="50" relative="1" as="geometry">
            <mxPoint x="-300" y="570" as="sourcePoint" />
            <mxPoint x="-300.37" y="530" as="targetPoint" />
            <mxPoint as="offset" />
          </mxGeometry>
        </mxCell>
        <mxCell id="0bSJ1-IyziWIZrMtLLBv-5" value="Pontos" style="ellipse;whiteSpace=wrap;html=1;" vertex="1" parent="1">
          <mxGeometry x="-325" y="565" width="50" height="20" as="geometry" />
        </mxCell>
        <mxCell id="0bSJ1-IyziWIZrMtLLBv-9" value="" style="endArrow=none;html=1;rounded=0;entryX=0.5;entryY=1;entryDx=0;entryDy=0;exitX=0.5;exitY=0;exitDx=0;exitDy=0;" edge="1" parent="1" source="0bSJ1-IyziWIZrMtLLBv-10" target="6ALOc77N3LzCM4Vwh_3e-2">
          <mxGeometry width="50" height="50" relative="1" as="geometry">
            <mxPoint x="-340" y="570" as="sourcePoint" />
            <mxPoint x="-300" y="540" as="targetPoint" />
          </mxGeometry>
        </mxCell>
        <mxCell id="0bSJ1-IyziWIZrMtLLBv-10" value="acertos" style="ellipse;whiteSpace=wrap;html=1;" vertex="1" parent="1">
          <mxGeometry x="-390" y="585" width="50" height="20" as="geometry" />
        </mxCell>
        <mxCell id="0bSJ1-IyziWIZrMtLLBv-11" value="" style="ellipse;whiteSpace=wrap;html=1;fillColor=none;" vertex="1" parent="1">
          <mxGeometry x="-395" y="580" width="60" height="30" as="geometry" />
        </mxCell>
      </root>
    </mxGraphModel>
  </diagram>
</mxfile>
